# xmcd
#
# Track frame offsets:
#	187
#	16337
#	34432
#	55160
#	77867
#	98315
#	114905
#	131462
#	148265
#	168515
#	186280
#	206510
#
# Disc length: 3025 seconds
#
# Revision: 1
# Processed by: cddbd v1.5PL3 Copyright (c) Steve Scherf et al.
# Submitted via: CDex 1.50Beta5
#
DISCID=9f0bcf0c
DTITLE=高橋真梨子 - SONGS
DYEAR=1900
DGENRE=Pop
TTITLE0=桃色吐息
TTITLE1=あなたの空を翔びたい
TTITLE2=for you(2)
TTITLE3=夜明けのララバイ
TTITLE4=アフロディーテ
TTITLE5=Come back to me
TTITLE6=ジョニーへの伝言
TTITLE7=五番街のマリーへ
TTITLE8=愛はルフラン
TTITLE9=もいちどロマンス
TTITLE10=ハート&ハード
TTITLE11=ランナー
EXTD=
EXTT0=
EXTT1=
EXTT2=
EXTT3=
EXTT4=
EXTT5=
EXTT6=
EXTT7=
EXTT8=
EXTT9=
EXTT10=
EXTT11=
PLAYORDER=
